<svg id="visual" viewBox="0 0 960 540" width="960" height="540" xmlns="http://www.w3.org/2000/svg" xmlns:xlink="http://www.w3.org/1999/xlink" version="1.1"><rect x="0" y="0" width="960" height="540" fill="#001220"></rect><path d="M0 366L22.8 362.2C45.7 358.3 91.3 350.7 137 347.7C182.7 344.7 228.3 346.3 274 355C319.7 363.7 365.3 379.3 411.2 383.7C457 388 503 381 548.8 377.5C594.7 374 640.3 374 686 366.7C731.7 359.3 777.3 344.7 823 335.8C868.7 327 914.3 324 937.2 322.5L960 321L960 541L937.2 541C914.3 541 868.7 541 823 541C777.3 541 731.7 541 686 541C640.3 541 594.7 541 548.8 541C503 541 457 541 411.2 541C365.3 541 319.7 541 274 541C228.3 541 182.7 541 137 541C91.3 541 45.7 541 22.8 541L0 541Z" fill="#ffdeeb"></path><path d="M0 384L22.8 380C45.7 376 91.3 368 137 368.7C182.7 369.3 228.3 378.7 274 379.3C319.7 380 365.3 372 411.2 373.2C457 374.3 503 384.7 548.8 390.3C594.7 396 640.3 397 686 393.7C731.7 390.3 777.3 382.7 823 382.8C868.7 383 914.3 391 937.2 395L960 399L960 541L937.2 541C914.3 541 868.7 541 823 541C777.3 541 731.7 541 686 541C640.3 541 594.7 541 548.8 541C503 541 457 541 411.2 541C365.3 541 319.7 541 274 541C228.3 541 182.7 541 137 541C91.3 541 45.7 541 22.8 541L0 541Z" fill="#e9afd2"></path><path d="M0 440L22.8 435.2C45.7 430.3 91.3 420.7 137 423.5C182.7 426.3 228.3 441.7 274 444.3C319.7 447 365.3 437 411.2 428.7C457 420.3 503 413.7 548.8 419.2C594.7 424.7 640.3 442.3 686 446.8C731.7 451.3 777.3 442.7 823 435C868.7 427.3 914.3 420.7 937.2 417.3L960 414L960 541L937.2 541C914.3 541 868.7 541 823 541C777.3 541 731.7 541 686 541C640.3 541 594.7 541 548.8 541C503 541 457 541 411.2 541C365.3 541 319.7 541 274 541C228.3 541 182.7 541 137 541C91.3 541 45.7 541 22.8 541L0 541Z" fill="#ca83c1"></path><path d="M0 470L22.8 469.5C45.7 469 91.3 468 137 469.8C182.7 471.7 228.3 476.3 274 472.2C319.7 468 365.3 455 411.2 448C457 441 503 440 548.8 439.5C594.7 439 640.3 439 686 439.5C731.7 440 777.3 441 823 443.8C868.7 446.7 914.3 451.3 937.2 453.7L960 456L960 541L937.2 541C914.3 541 868.7 541 823 541C777.3 541 731.7 541 686 541C640.3 541 594.7 541 548.8 541C503 541 457 541 411.2 541C365.3 541 319.7 541 274 541C228.3 541 182.7 541 137 541C91.3 541 45.7 541 22.8 541L0 541Z" fill="#a15cb7"></path><path d="M0 488L22.8 490.3C45.7 492.7 91.3 497.3 137 498.7C182.7 500 228.3 498 274 494.2C319.7 490.3 365.3 484.7 411.2 485.3C457 486 503 493 548.8 496.7C594.7 500.3 640.3 500.7 686 500.3C731.7 500 777.3 499 823 494.3C868.7 489.7 914.3 481.3 937.2 477.2L960 473L960 541L937.2 541C914.3 541 868.7 541 823 541C777.3 541 731.7 541 686 541C640.3 541 594.7 541 548.8 541C503 541 457 541 411.2 541C365.3 541 319.7 541 274 541C228.3 541 182.7 541 137 541C91.3 541 45.7 541 22.8 541L0 541Z" fill="#693bb0"></path></svg>